<svg version="1.1" xmlns="http://www.w3.org/2000/svg" width="628" height="288">
    <defs>
        <clipPath id="chart-1">
            <rect fill="none" x="0" y="0" width="564" height="262"></rect>
        </clipPath>
        <linearGradient x1="0" y1="0" x2="0" y2="1" id="chart-4">
            <stop offset="0" stop-color="rgb(165,195,220)" stop-opacity="1"></stop>
            <stop offset="1" stop-color="rgb(25,40,60)" stop-opacity="1"></stop>
        </linearGradient>
    </defs>
    <!-- background -->
    <rect rx="5" ry="5" fill="#FFFFFF" x="0" y="0" width="628" height="288"></rect>
    <!-- horizontal grid lines -->
    <g class="chart-grid" zIndex="1">
        <path fill="none" d="M 10 228.5 L 574 228.5" stroke="#C0C0C0" stroke-width="1" zIndex="1" opacity="1"></path>
        <path fill="none" d="M 10 185.5 L 574 185.5" stroke="#C0C0C0" stroke-width="1" zIndex="1" opacity="1"></path>
        <path fill="none" d="M 10 141.5 L 574 141.5" stroke="#C0C0C0" stroke-width="1" zIndex="1" opacity="1"></path>
        <path fill="none" d="M 10 97.5 L 574 97.5" stroke="#C0C0C0" stroke-width="1" zIndex="1" opacity="1"></path>
        <path fill="none" d="M 10 54.5 L 574 54.5" stroke="#C0C0C0" stroke-width="1" zIndex="1" opacity="1"></path>
        <path fill="none" d="M 10 9.5 L 574 9.5" stroke="#C0C0C0" stroke-width="1" zIndex="1" opacity="1"></path>
        <path fill="none" d="M 10 272.5 L 574 272.5" stroke="#C0C0C0" stroke-width="1" zIndex="1" opacity="1"></path>
    </g>
    <!-- frame -->
    <rect rx="0" ry="0" fill="none" x="9.5" y="9.5" width="565" height="263" stroke="#C0C0C0" stroke-width="1" zIndex="1"></rect>
    <g class="chart-axis" zIndex="2">
        <path fill="none" d="M 178.5 272 L 178.5 277" stroke="#C0D0E0" stroke-width="1" opacity="1"></path>
        <path fill="none" d="M 275.5 272 L 275.5 277" stroke="#C0D0E0" stroke-width="1" opacity="1"></path>
        <path fill="none" d="M 366.5 272 L 366.5 277" stroke="#C0D0E0" stroke-width="1" opacity="1"></path>
        <path fill="none" d="M 461.5 272 L 461.5 277" stroke="#C0D0E0" stroke-width="1" opacity="1"></path>
        <path fill="none" d="M 553.5 272 L 553.5 277" stroke="#C0D0E0" stroke-width="1" opacity="1"></path>
        <path fill="none" d="M 80.5 272 L 80.5 277" stroke="#C0D0E0" stroke-width="1" opacity="1"></path>
        <path fill="none" d="M 10 272.5 L 574 272.5" stroke="#bbb" stroke-width="1" zIndex="7" visibility="visible"></path>
    </g>
    <!-- right-hand vertical axis -->
    <g class="chart-axis" zIndex="2">
        <path fill="none" d="M 574.5 10 L 574.5 272" stroke="#999999" stroke-width="1" zIndex="7" visibility="visible"></path>
    </g>
    <g class="chart-series-group" zIndex="3">
    <!-- obviously the main data series: the path has a width of 20 and opacity 0.0001 making it basically invisible, but it can be
         used to "sense" the mouse by providing an event target -->
        <g class="chart-series" visibility="visible" zIndex="0.1" transform="translate(10,10) scale(1 1)" clip-path="url(#chart-1)">
            <path fill="url(#chart-4)" d="M 0 62.55964760061417 L 2.238095238095238 55.11290319504968 L 4.476190476190476 56.30698029194991 L 6.714285714285714 46.09237516804774 L 8.952380952380953 43.66674993564149 L 11.190476190476192 50.10427436809337 L 13.428571428571429 63.576361781447616 L 15.666666666666668 60.95588714829202 L 17.904761904761905 74.03078155242625 L 20.142857142857142 68.13284007589556 L 22.380952380952383 69.19951564153672 L 24.61904761904762 65.36497935755764 L 26.857142857142858 59.781794605314786 L 29.0952380952381 66.3117475996606 L 31.333333333333336 62.29984839961497 L 33.57142857142858 63.284087680323466 L 35.80952380952381 65.90706038271952 L 38.04761904761905 58.330416376655535 L 40.285714285714285 62.54216111593138 L 42.523809523809526 62.72452017047905 L 44.761904761904766 55.08542443340562 L 47 72.26214853023922 L 49.23809523809524 72.63935698553601 L 51.47619047619048 77.13338354897473 L 53.714285714285715 73.83093601319604 L 55.952380952380956 83.49096976573463 L 58.1904761904762 67.14360465670617 L 60.42857142857143 88.34222023054716 L 62.66666666666667 85.43196956550759 L 64.90476190476191 75.46217522716228 L 67.14285714285715 77.59302828920394 L 69.38095238095238 74.18316377608917 L 71.61904761904762 85.89661044421788 L 73.85714285714286 80.28095079184985 L 76.0952380952381 82.56168800831426 L 78.33333333333334 79.55900878138098 L 80.57142857142857 77.95025219057797 L 82.80952380952381 68.44759680018313 L 85.04761904761905 67.64072043554143 L 87.28571428571429 80.68563800879093 L 89.52380952380953 72.96660405602552 L 91.76190476190477 71.44278181939535 L 94 78.37742203068245 L 96.23809523809524 74.82266950162582 L 98.47619047619048 68.35267016904879 L 100.71428571428572 68.21777443006843 L 102.95238095238096 68.62495971624992 L 105.19047619047619 72.559418769844 L 107.42857142857143 65.80214147462365 L 109.66666666666667 72.40204040770021 L 111.90476190476191 71.72256557431754 L 114.14285714285715 66.59153135458283 L 116.3809523809524 66.71893288584212 L 118.61904761904762 61.42802223472316 L 120.85714285714286 72.5893956007285 L 123.0952380952381 83.35107788827341 L 125.33333333333334 73.32132988815908 L 127.57142857142858 72.69181643958393 L 129.80952380952382 66.37170126142959 L 132.04761904761907 59.007393140797745 L 134.2857142857143 62.60960898542169 L 136.52380952380952 72.082287544932 L 138.76190476190476 75.71198215119998 L 141 79.74386590516886 L 143.23809523809524 94.1702157683471 L 145.47619047619048 86.46367216178339 L 147.71428571428572 86.28131310723597 L 149.95238095238096 81.84724020556646 L 152.1904761904762 83.66333654332055 L 154.42857142857144 82.78151810146747 L 156.66666666666669 83.89315891343529 L 158.90476190476193 82.02210505239282 L 161.14285714285714 76.18411723763137 L 163.38095238095238 83.08878061803375 L 165.61904761904762 88.82184952469959 L 167.85714285714286 98.19210724535426 L 170.0952380952381 90.02342082932088 L 172.33333333333334 96.4134819462057 L 174.57142857142858 106.06602149102326 L 176.80952380952382 114.12978899896075 L 179.04761904761907 119.210861833888 L 181.2857142857143 118.92858000972535 L 183.52380952380955 119.89033666727053 L 185.76190476190476 114.15976582984538 L 188 118.76870357834125 L 190.23809523809524 115.18647228764033 L 192.47619047619048 115.46625604256263 L 194.71428571428572 114.9666421944872 L 196.95238095238096 111.05966190253721 L 199.1904761904762 106.6855426626368 L 201.42857142857144 92.58643986994795 L 203.66666666666669 97.05048960250195 L 205.90476190476193 91.76957122834449 L 208.14285714285717 91.51976430430676 L 210.38095238095238 88.26228201485492 L 212.61904761904762 92.75381050905324 L 214.85714285714286 93.58067142761794 L 217.0952380952381 97.0255089100981 L 219.33333333333334 92.84374100170672 L 221.57142857142858 105.10426483347806 L 223.80952380952382 117.6645569740945 L 226.04761904761907 129.63780284322232 L 228.2857142857143 130.04249006016352 L 230.52380952380955 142.97749258683655 L 232.7619047619048 162.02776861395301 L 235 162.13768366052963 L 237.23809523809524 159.861942582546 L 239.47619047619048 153.4169239423728 L 241.71428571428572 155.13059944127158 L 243.95238095238096 158.52547553894422 L 246.1904761904762 157.55872274291826 L 248.42857142857144 158.67036355488608 L 250.66666666666669 172.17742393760557 L 252.90476190476193 170.723547639706 L 255.14285714285717 165.4950887195966 L 257.3809523809524 174.56557813140614 L 259.61904761904765 162.93456774821 L 261.8571428571429 161.00855636387917 L 264.09523809523813 148.63062327781014 L 266.33333333333337 147.91367740582191 L 268.5714285714286 148.61063872388712 L 270.80952380952385 149.62485483548028 L 273.04761904761904 157.0765953795254 L 275.2857142857143 147.40906741926574 L 277.5238095238095 143.86180909793006 L 279.76190476190476 149.25763865714487 L 282 157.5787072968413 L 284.23809523809524 156.18978079919157 L 286.4761904761905 159.09003918726938 L 288.7142857142857 160.39652939998666 L 290.95238095238096 163.90381861347623 L 293.1904761904762 165.83232806704748 L 295.42857142857144 173.4089720731115 L 297.6666666666667 160.20667613771806 L 299.9047619047619 170.72854377818675 L 302.14285714285717 171.59037766611684 L 304.3809523809524 160.74875716287994 L 306.61904761904765 163.38422021147778 L 308.8571428571429 164.8805636864638 L 311.09523809523813 161.33830150360888 L 313.33333333333337 168.83750536322117 L 315.5714285714286 158.90768013272185 L 317.80952380952385 165.4076562961833 L 320.0476190476191 177.1985431107637 L 322.2857142857143 206.13617719129297 L 324.5238095238095 196.98574956379142 L 326.76190476190476 206.59082579304166 L 329 195.7042400434779 L 331.23809523809524 184.77768518606803 L 333.4761904761905 186.49385875420722 L 335.7142857142857 191.41505515775026 L 337.95238095238096 201.50475681963368 L 340.1904761904762 208.8940456326695 L 342.42857142857144 200.90272213270282 L 344.6666666666667 208.35446267674794 L 346.9047619047619 207.4776403733756 L 349.14285714285717 212.59868231614885 L 351.3809523809524 225.61112498927355 L 353.61904761904765 205.82641660548626 L 355.8571428571429 205.87887605953418 L 358.09523809523813 204.3025943688562 L 360.33333333333337 210.26048950715577 L 362.5714285714286 191.26766907256797 L 364.80952380952385 192.4717384464298 L 367.0476190476191 184.93756161745222 L 369.28571428571433 177.80807200541574 L 371.5238095238095 173.56884850449558 L 373.76190476190476 175.3849448422498 L 376 183.6560520971387 L 378.23809523809524 179.13704484129636 L 380.4761904761905 182.3945271307482 L 382.7142857142857 185.19486274921104 L 384.95238095238096 168.1430421143964 L 387.1904761904762 167.75584138213787 L 389.42857142857144 176.1168791296804 L 391.6666666666667 183.44371621170666 L 393.9047619047619 185.896820205757 L 396.14285714285717 186.6887081549566 L 398.3809523809524 194.6350664085964 L 400.61904761904765 183.48368531955265 L 402.8571428571429 170.5037175465528 L 405.09523809523813 168.26794557641523 L 407.33333333333337 161.70301961270394 L 409.5714285714286 159.81447926697882 L 411.80952380952385 142.65773972406834 L 414.0476190476191 142.60028413153964 L 416.28571428571433 153.61926755084335 L 418.5238095238096 157.32140616508235 L 420.76190476190476 149.40752281156747 L 423 148.9353877251361 L 425.23809523809524 141.35374758059135 L 427.4761904761905 141.12142714123632 L 429.7142857142857 136.05784079099178 L 431.95238095238096 136.75230403981658 L 434.1904761904762 141.75094058981136 L 436.42857142857144 135.21599145698468 L 438.6666666666667 141.75843479753257 L 440.9047619047619 140.1696627606526 L 443.14285714285717 139.75498326674995 L 445.3809523809524 143.21730723391275 L 447.61904761904765 149.0028355946264 L 449.8571428571429 152.48264604647179 L 452.09523809523813 146.92194391739213 L 454.33333333333337 143.75938825907463 L 456.5714285714286 137.97885603684185 L 458.80952380952385 137.28439278801693 L 461.0476190476191 143.18483233378782 L 463.28571428571433 150.31432194582442 L 465.5238095238096 146.98939178688227 L 467.7619047619048 144.29147700727498 L 470 142.96750030987505 L 472.23809523809524 139.25037328019374 L 474.4761904761905 132.62299558547315 L 476.7142857142857 124.69911995499663 L 478.95238095238096 121.30923999580486 L 481.1904761904762 126.33035916896299 L 483.42857142857144 119.58307415070414 L 485.6666666666667 139.0480296717232 L 487.9047619047619 144.2140368608233 L 490.14285714285717 141.50862787349485 L 492.3809523809524 141.55359311982158 L 494.61904761904765 136.85722294791242 L 496.8571428571429 130.13242055281702 L 499.09523809523813 124.74908133980423 L 501.33333333333337 115.83347222089805 L 503.5714285714286 110.63998627015388 L 505.80952380952385 113.06061536407938 L 508.0476190476191 107.85963520561404 L 510.28571428571433 107.3999904653846 L 512.5238095238095 111.0196927946912 L 514.7619047619048 111.07215224873914 L 517 110.27776623029911 L 519.2380952380953 107.24511017248125 L 521.4761904761905 106.44073187707983 L 523.7142857142858 101.71438487428617 L 525.952380952381 102.08659719110233 L 528.1904761904763 103.53797541976158 L 530.4285714285714 95.83143181319787 L 532.6666666666667 100.6651957933278 L 534.9047619047619 108.40421430001624 L 537.1428571428572 106.53815657745452 L 539.3809523809524 104.64212202400819 L 541.6190476190477 107.72473946663368 L 543.8571428571429 111.56676995833382 L 546.0952380952381 116.4554914617519 L 548.3333333333334 113.00066170231028 L 550.5714285714286 128.40125856923567 L 552.8095238095239 126.72255603970225 L 555.047619047619 135.92544312125173 L 557.2857142857143 135.74558213594463 L 559.5238095238095 142.31300616889624 L 561.7619047619048 131.58379878147625 L 564 125.36360637293703 L 564 262 L 0 262" zIndex="0"></path><path fill="none" d="M 0 62.55964760061417 L 2.238095238095238 55.11290319504968 L 4.476190476190476 56.30698029194991 L 6.714285714285714 46.09237516804774 L 8.952380952380953 43.66674993564149 L 11.190476190476192 50.10427436809337 L 13.428571428571429 63.576361781447616 L 15.666666666666668 60.95588714829202 L 17.904761904761905 74.03078155242625 L 20.142857142857142 68.13284007589556 L 22.380952380952383 69.19951564153672 L 24.61904761904762 65.36497935755764 L 26.857142857142858 59.781794605314786 L 29.0952380952381 66.3117475996606 L 31.333333333333336 62.29984839961497 L 33.57142857142858 63.284087680323466 L 35.80952380952381 65.90706038271952 L 38.04761904761905 58.330416376655535 L 40.285714285714285 62.54216111593138 L 42.523809523809526 62.72452017047905 L 44.761904761904766 55.08542443340562 L 47 72.26214853023922 L 49.23809523809524 72.63935698553601 L 51.47619047619048 77.13338354897473 L 53.714285714285715 73.83093601319604 L 55.952380952380956 83.49096976573463 L 58.1904761904762 67.14360465670617 L 60.42857142857143 88.34222023054716 L 62.66666666666667 85.43196956550759 L 64.90476190476191 75.46217522716228 L 67.14285714285715 77.59302828920394 L 69.38095238095238 74.18316377608917 L 71.61904761904762 85.89661044421788 L 73.85714285714286 80.28095079184985 L 76.0952380952381 82.56168800831426 L 78.33333333333334 79.55900878138098 L 80.57142857142857 77.95025219057797 L 82.80952380952381 68.44759680018313 L 85.04761904761905 67.64072043554143 L 87.28571428571429 80.68563800879093 L 89.52380952380953 72.96660405602552 L 91.76190476190477 71.44278181939535 L 94 78.37742203068245 L 96.23809523809524 74.82266950162582 L 98.47619047619048 68.35267016904879 L 100.71428571428572 68.21777443006843 L 102.95238095238096 68.62495971624992 L 105.19047619047619 72.559418769844 L 107.42857142857143 65.80214147462365 L 109.66666666666667 72.40204040770021 L 111.90476190476191 71.72256557431754 L 114.14285714285715 66.59153135458283 L 116.3809523809524 66.71893288584212 L 118.61904761904762 61.42802223472316 L 120.85714285714286 72.5893956007285 L 123.0952380952381 83.35107788827341 L 125.33333333333334 73.32132988815908 L 127.57142857142858 72.69181643958393 L 129.80952380952382 66.37170126142959 L 132.04761904761907 59.007393140797745 L 134.2857142857143 62.60960898542169 L 136.52380952380952 72.082287544932 L 138.76190476190476 75.71198215119998 L 141 79.74386590516886 L 143.23809523809524 94.1702157683471 L 145.47619047619048 86.46367216178339 L 147.71428571428572 86.28131310723597 L 149.95238095238096 81.84724020556646 L 152.1904761904762 83.66333654332055 L 154.42857142857144 82.78151810146747 L 156.66666666666669 83.89315891343529 L 158.90476190476193 82.02210505239282 L 161.14285714285714 76.18411723763137 L 163.38095238095238 83.08878061803375 L 165.61904761904762 88.82184952469959 L 167.85714285714286 98.19210724535426 L 170.0952380952381 90.02342082932088 L 172.33333333333334 96.4134819462057 L 174.57142857142858 106.06602149102326 L 176.80952380952382 114.12978899896075 L 179.04761904761907 119.210861833888 L 181.2857142857143 118.92858000972535 L 183.52380952380955 119.89033666727053 L 185.76190476190476 114.15976582984538 L 188 118.76870357834125 L 190.23809523809524 115.18647228764033 L 192.47619047619048 115.46625604256263 L 194.71428571428572 114.9666421944872 L 196.95238095238096 111.05966190253721 L 199.1904761904762 106.6855426626368 L 201.42857142857144 92.58643986994795 L 203.66666666666669 97.05048960250195 L 205.90476190476193 91.76957122834449 L 208.14285714285717 91.51976430430676 L 210.38095238095238 88.26228201485492 L 212.61904761904762 92.75381050905324 L 214.85714285714286 93.58067142761794 L 217.0952380952381 97.0255089100981 L 219.33333333333334 92.84374100170672 L 221.57142857142858 105.10426483347806 L 223.80952380952382 117.6645569740945 L 226.04761904761907 129.63780284322232 L 228.2857142857143 130.04249006016352 L 230.52380952380955 142.97749258683655 L 232.7619047619048 162.02776861395301 L 235 162.13768366052963 L 237.23809523809524 159.861942582546 L 239.47619047619048 153.4169239423728 L 241.71428571428572 155.13059944127158 L 243.95238095238096 158.52547553894422 L 246.1904761904762 157.55872274291826 L 248.42857142857144 158.67036355488608 L 250.66666666666669 172.17742393760557 L 252.90476190476193 170.723547639706 L 255.14285714285717 165.4950887195966 L 257.3809523809524 174.56557813140614 L 259.61904761904765 162.93456774821 L 261.8571428571429 161.00855636387917 L 264.09523809523813 148.63062327781014 L 266.33333333333337 147.91367740582191 L 268.5714285714286 148.61063872388712 L 270.80952380952385 149.62485483548028 L 273.04761904761904 157.0765953795254 L 275.2857142857143 147.40906741926574 L 277.5238095238095 143.86180909793006 L 279.76190476190476 149.25763865714487 L 282 157.5787072968413 L 284.23809523809524 156.18978079919157 L 286.4761904761905 159.09003918726938 L 288.7142857142857 160.39652939998666 L 290.95238095238096 163.90381861347623 L 293.1904761904762 165.83232806704748 L 295.42857142857144 173.4089720731115 L 297.6666666666667 160.20667613771806 L 299.9047619047619 170.72854377818675 L 302.14285714285717 171.59037766611684 L 304.3809523809524 160.74875716287994 L 306.61904761904765 163.38422021147778 L 308.8571428571429 164.8805636864638 L 311.09523809523813 161.33830150360888 L 313.33333333333337 168.83750536322117 L 315.5714285714286 158.90768013272185 L 317.80952380952385 165.4076562961833 L 320.0476190476191 177.1985431107637 L 322.2857142857143 206.13617719129297 L 324.5238095238095 196.98574956379142 L 326.76190476190476 206.59082579304166 L 329 195.7042400434779 L 331.23809523809524 184.77768518606803 L 333.4761904761905 186.49385875420722 L 335.7142857142857 191.41505515775026 L 337.95238095238096 201.50475681963368 L 340.1904761904762 208.8940456326695 L 342.42857142857144 200.90272213270282 L 344.6666666666667 208.35446267674794 L 346.9047619047619 207.4776403733756 L 349.14285714285717 212.59868231614885 L 351.3809523809524 225.61112498927355 L 353.61904761904765 205.82641660548626 L 355.8571428571429 205.87887605953418 L 358.09523809523813 204.3025943688562 L 360.33333333333337 210.26048950715577 L 362.5714285714286 191.26766907256797 L 364.80952380952385 192.4717384464298 L 367.0476190476191 184.93756161745222 L 369.28571428571433 177.80807200541574 L 371.5238095238095 173.56884850449558 L 373.76190476190476 175.3849448422498 L 376 183.6560520971387 L 378.23809523809524 179.13704484129636 L 380.4761904761905 182.3945271307482 L 382.7142857142857 185.19486274921104 L 384.95238095238096 168.1430421143964 L 387.1904761904762 167.75584138213787 L 389.42857142857144 176.1168791296804 L 391.6666666666667 183.44371621170666 L 393.9047619047619 185.896820205757 L 396.14285714285717 186.6887081549566 L 398.3809523809524 194.6350664085964 L 400.61904761904765 183.48368531955265 L 402.8571428571429 170.5037175465528 L 405.09523809523813 168.26794557641523 L 407.33333333333337 161.70301961270394 L 409.5714285714286 159.81447926697882 L 411.80952380952385 142.65773972406834 L 414.0476190476191 142.60028413153964 L 416.28571428571433 153.61926755084335 L 418.5238095238096 157.32140616508235 L 420.76190476190476 149.40752281156747 L 423 148.9353877251361 L 425.23809523809524 141.35374758059135 L 427.4761904761905 141.12142714123632 L 429.7142857142857 136.05784079099178 L 431.95238095238096 136.75230403981658 L 434.1904761904762 141.75094058981136 L 436.42857142857144 135.21599145698468 L 438.6666666666667 141.75843479753257 L 440.9047619047619 140.1696627606526 L 443.14285714285717 139.75498326674995 L 445.3809523809524 143.21730723391275 L 447.61904761904765 149.0028355946264 L 449.8571428571429 152.48264604647179 L 452.09523809523813 146.92194391739213 L 454.33333333333337 143.75938825907463 L 456.5714285714286 137.97885603684185 L 458.80952380952385 137.28439278801693 L 461.0476190476191 143.18483233378782 L 463.28571428571433 150.31432194582442 L 465.5238095238096 146.98939178688227 L 467.7619047619048 144.29147700727498 L 470 142.96750030987505 L 472.23809523809524 139.25037328019374 L 474.4761904761905 132.62299558547315 L 476.7142857142857 124.69911995499663 L 478.95238095238096 121.30923999580486 L 481.1904761904762 126.33035916896299 L 483.42857142857144 119.58307415070414 L 485.6666666666667 139.0480296717232 L 487.9047619047619 144.2140368608233 L 490.14285714285717 141.50862787349485 L 492.3809523809524 141.55359311982158 L 494.61904761904765 136.85722294791242 L 496.8571428571429 130.13242055281702 L 499.09523809523813 124.74908133980423 L 501.33333333333337 115.83347222089805 L 503.5714285714286 110.63998627015388 L 505.80952380952385 113.06061536407938 L 508.0476190476191 107.85963520561404 L 510.28571428571433 107.3999904653846 L 512.5238095238095 111.0196927946912 L 514.7619047619048 111.07215224873914 L 517 110.27776623029911 L 519.2380952380953 107.24511017248125 L 521.4761904761905 106.44073187707983 L 523.7142857142858 101.71438487428617 L 525.952380952381 102.08659719110233 L 528.1904761904763 103.53797541976158 L 530.4285714285714 95.83143181319787 L 532.6666666666667 100.6651957933278 L 534.9047619047619 108.40421430001624 L 537.1428571428572 106.53815657745452 L 539.3809523809524 104.64212202400819 L 541.6190476190477 107.72473946663368 L 543.8571428571429 111.56676995833382 L 546.0952380952381 116.4554914617519 L 548.3333333333334 113.00066170231028 L 550.5714285714286 128.40125856923567 L 552.8095238095239 126.72255603970225 L 555.047619047619 135.92544312125173 L 557.2857142857143 135.74558213594463 L 559.5238095238095 142.31300616889624 L 561.7619047619048 131.58379878147625 L 564 125.36360637293703" stroke="#142635" stroke-width="1" zIndex="1"></path><path fill="none" d="M -10 62.55964760061417 L 0 62.55964760061417 L 2.238095238095238 55.11290319504968 L 4.476190476190476 56.30698029194991 L 6.714285714285714 46.09237516804774 L 8.952380952380953 43.66674993564149 L 11.190476190476192 50.10427436809337 L 13.428571428571429 63.576361781447616 L 15.666666666666668 60.95588714829202 L 17.904761904761905 74.03078155242625 L 20.142857142857142 68.13284007589556 L 22.380952380952383 69.19951564153672 L 24.61904761904762 65.36497935755764 L 26.857142857142858 59.781794605314786 L 29.0952380952381 66.3117475996606 L 31.333333333333336 62.29984839961497 L 33.57142857142858 63.284087680323466 L 35.80952380952381 65.90706038271952 L 38.04761904761905 58.330416376655535 L 40.285714285714285 62.54216111593138 L 42.523809523809526 62.72452017047905 L 44.761904761904766 55.08542443340562 L 47 72.26214853023922 L 49.23809523809524 72.63935698553601 L 51.47619047619048 77.13338354897473 L 53.714285714285715 73.83093601319604 L 55.952380952380956 83.49096976573463 L 58.1904761904762 67.14360465670617 L 60.42857142857143 88.34222023054716 L 62.66666666666667 85.43196956550759 L 64.90476190476191 75.46217522716228 L 67.14285714285715 77.59302828920394 L 69.38095238095238 74.18316377608917 L 71.61904761904762 85.89661044421788 L 73.85714285714286 80.28095079184985 L 76.0952380952381 82.56168800831426 L 78.33333333333334 79.55900878138098 L 80.57142857142857 77.95025219057797 L 82.80952380952381 68.44759680018313 L 85.04761904761905 67.64072043554143 L 87.28571428571429 80.68563800879093 L 89.52380952380953 72.96660405602552 L 91.76190476190477 71.44278181939535 L 94 78.37742203068245 L 96.23809523809524 74.82266950162582 L 98.47619047619048 68.35267016904879 L 100.71428571428572 68.21777443006843 L 102.95238095238096 68.62495971624992 L 105.19047619047619 72.559418769844 L 107.42857142857143 65.80214147462365 L 109.66666666666667 72.40204040770021 L 111.90476190476191 71.72256557431754 L 114.14285714285715 66.59153135458283 L 116.3809523809524 66.71893288584212 L 118.61904761904762 61.42802223472316 L 120.85714285714286 72.5893956007285 L 123.0952380952381 83.35107788827341 L 125.33333333333334 73.32132988815908 L 127.57142857142858 72.69181643958393 L 129.80952380952382 66.37170126142959 L 132.04761904761907 59.007393140797745 L 134.2857142857143 62.60960898542169 L 136.52380952380952 72.082287544932 L 138.76190476190476 75.71198215119998 L 141 79.74386590516886 L 143.23809523809524 94.1702157683471 L 145.47619047619048 86.46367216178339 L 147.71428571428572 86.28131310723597 L 149.95238095238096 81.84724020556646 L 152.1904761904762 83.66333654332055 L 154.42857142857144 82.78151810146747 L 156.66666666666669 83.89315891343529 L 158.90476190476193 82.02210505239282 L 161.14285714285714 76.18411723763137 L 163.38095238095238 83.08878061803375 L 165.61904761904762 88.82184952469959 L 167.85714285714286 98.19210724535426 L 170.0952380952381 90.02342082932088 L 172.33333333333334 96.4134819462057 L 174.57142857142858 106.06602149102326 L 176.80952380952382 114.12978899896075 L 179.04761904761907 119.210861833888 L 181.2857142857143 118.92858000972535 L 183.52380952380955 119.89033666727053 L 185.76190476190476 114.15976582984538 L 188 118.76870357834125 L 190.23809523809524 115.18647228764033 L 192.47619047619048 115.46625604256263 L 194.71428571428572 114.9666421944872 L 196.95238095238096 111.05966190253721 L 199.1904761904762 106.6855426626368 L 201.42857142857144 92.58643986994795 L 203.66666666666669 97.05048960250195 L 205.90476190476193 91.76957122834449 L 208.14285714285717 91.51976430430676 L 210.38095238095238 88.26228201485492 L 212.61904761904762 92.75381050905324 L 214.85714285714286 93.58067142761794 L 217.0952380952381 97.0255089100981 L 219.33333333333334 92.84374100170672 L 221.57142857142858 105.10426483347806 L 223.80952380952382 117.6645569740945 L 226.04761904761907 129.63780284322232 L 228.2857142857143 130.04249006016352 L 230.52380952380955 142.97749258683655 L 232.7619047619048 162.02776861395301 L 235 162.13768366052963 L 237.23809523809524 159.861942582546 L 239.47619047619048 153.4169239423728 L 241.71428571428572 155.13059944127158 L 243.95238095238096 158.52547553894422 L 246.1904761904762 157.55872274291826 L 248.42857142857144 158.67036355488608 L 250.66666666666669 172.17742393760557 L 252.90476190476193 170.723547639706 L 255.14285714285717 165.4950887195966 L 257.3809523809524 174.56557813140614 L 259.61904761904765 162.93456774821 L 261.8571428571429 161.00855636387917 L 264.09523809523813 148.63062327781014 L 266.33333333333337 147.91367740582191 L 268.5714285714286 148.61063872388712 L 270.80952380952385 149.62485483548028 L 273.04761904761904 157.0765953795254 L 275.2857142857143 147.40906741926574 L 277.5238095238095 143.86180909793006 L 279.76190476190476 149.25763865714487 L 282 157.5787072968413 L 284.23809523809524 156.18978079919157 L 286.4761904761905 159.09003918726938 L 288.7142857142857 160.39652939998666 L 290.95238095238096 163.90381861347623 L 293.1904761904762 165.83232806704748 L 295.42857142857144 173.4089720731115 L 297.6666666666667 160.20667613771806 L 299.9047619047619 170.72854377818675 L 302.14285714285717 171.59037766611684 L 304.3809523809524 160.74875716287994 L 306.61904761904765 163.38422021147778 L 308.8571428571429 164.8805636864638 L 311.09523809523813 161.33830150360888 L 313.33333333333337 168.83750536322117 L 315.5714285714286 158.90768013272185 L 317.80952380952385 165.4076562961833 L 320.0476190476191 177.1985431107637 L 322.2857142857143 206.13617719129297 L 324.5238095238095 196.98574956379142 L 326.76190476190476 206.59082579304166 L 329 195.7042400434779 L 331.23809523809524 184.77768518606803 L 333.4761904761905 186.49385875420722 L 335.7142857142857 191.41505515775026 L 337.95238095238096 201.50475681963368 L 340.1904761904762 208.8940456326695 L 342.42857142857144 200.90272213270282 L 344.6666666666667 208.35446267674794 L 346.9047619047619 207.4776403733756 L 349.14285714285717 212.59868231614885 L 351.3809523809524 225.61112498927355 L 353.61904761904765 205.82641660548626 L 355.8571428571429 205.87887605953418 L 358.09523809523813 204.3025943688562 L 360.33333333333337 210.26048950715577 L 362.5714285714286 191.26766907256797 L 364.80952380952385 192.4717384464298 L 367.0476190476191 184.93756161745222 L 369.28571428571433 177.80807200541574 L 371.5238095238095 173.56884850449558 L 373.76190476190476 175.3849448422498 L 376 183.6560520971387 L 378.23809523809524 179.13704484129636 L 380.4761904761905 182.3945271307482 L 382.7142857142857 185.19486274921104 L 384.95238095238096 168.1430421143964 L 387.1904761904762 167.75584138213787 L 389.42857142857144 176.1168791296804 L 391.6666666666667 183.44371621170666 L 393.9047619047619 185.896820205757 L 396.14285714285717 186.6887081549566 L 398.3809523809524 194.6350664085964 L 400.61904761904765 183.48368531955265 L 402.8571428571429 170.5037175465528 L 405.09523809523813 168.26794557641523 L 407.33333333333337 161.70301961270394 L 409.5714285714286 159.81447926697882 L 411.80952380952385 142.65773972406834 L 414.0476190476191 142.60028413153964 L 416.28571428571433 153.61926755084335 L 418.5238095238096 157.32140616508235 L 420.76190476190476 149.40752281156747 L 423 148.9353877251361 L 425.23809523809524 141.35374758059135 L 427.4761904761905 141.12142714123632 L 429.7142857142857 136.05784079099178 L 431.95238095238096 136.75230403981658 L 434.1904761904762 141.75094058981136 L 436.42857142857144 135.21599145698468 L 438.6666666666667 141.75843479753257 L 440.9047619047619 140.1696627606526 L 443.14285714285717 139.75498326674995 L 445.3809523809524 143.21730723391275 L 447.61904761904765 149.0028355946264 L 449.8571428571429 152.48264604647179 L 452.09523809523813 146.92194391739213 L 454.33333333333337 143.75938825907463 L 456.5714285714286 137.97885603684185 L 458.80952380952385 137.28439278801693 L 461.0476190476191 143.18483233378782 L 463.28571428571433 150.31432194582442 L 465.5238095238096 146.98939178688227 L 467.7619047619048 144.29147700727498 L 470 142.96750030987505 L 472.23809523809524 139.25037328019374 L 474.4761904761905 132.62299558547315 L 476.7142857142857 124.69911995499663 L 478.95238095238096 121.30923999580486 L 481.1904761904762 126.33035916896299 L 483.42857142857144 119.58307415070414 L 485.6666666666667 139.0480296717232 L 487.9047619047619 144.2140368608233 L 490.14285714285717 141.50862787349485 L 492.3809523809524 141.55359311982158 L 494.61904761904765 136.85722294791242 L 496.8571428571429 130.13242055281702 L 499.09523809523813 124.74908133980423 L 501.33333333333337 115.83347222089805 L 503.5714285714286 110.63998627015388 L 505.80952380952385 113.06061536407938 L 508.0476190476191 107.85963520561404 L 510.28571428571433 107.3999904653846 L 512.5238095238095 111.0196927946912 L 514.7619047619048 111.07215224873914 L 517 110.27776623029911 L 519.2380952380953 107.24511017248125 L 521.4761904761905 106.44073187707983 L 523.7142857142858 101.71438487428617 L 525.952380952381 102.08659719110233 L 528.1904761904763 103.53797541976158 L 530.4285714285714 95.83143181319787 L 532.6666666666667 100.6651957933278 L 534.9047619047619 108.40421430001624 L 537.1428571428572 106.53815657745452 L 539.3809523809524 104.64212202400819 L 541.6190476190477 107.72473946663368 L 543.8571428571429 111.56676995833382 L 546.0952380952381 116.4554914617519 L 548.3333333333334 113.00066170231028 L 550.5714285714286 128.40125856923567 L 552.8095238095239 126.72255603970225 L 555.047619047619 135.92544312125173 L 557.2857142857143 135.74558213594463 L 559.5238095238095 142.31300616889624 L 561.7619047619048 131.58379878147625 L 564 125.36360637293703 L 574 125.36360637293703" stroke-linejoin="round" visibility="visible" stroke-opacity="0.0001" stroke="rgb(192,192,192)" stroke-width="21" zIndex="2" class=" chart-tracker" style=""></path>
        </g>
    </g>
    <!-- horizontal axis -->
    <g class="chart-axis-labels" zIndex="7">
        <text x="80.87301587301587" y="286" style="font-family:Arial;font-size:10px;color:#000000;cursor:default;line-height:14px;fill:#000000;" text-anchor="middle" opacity="1">
            <tspan x="80.87301587301587">Jul '18</tspan>
        </text>
        <text x="178.6031746031746" y="286" style="font-family:Arial;font-size:10px;color:#000000;cursor:default;line-height:14px;fill:#000000;" text-anchor="middle" opacity="1">
            <tspan x="178.6031746031746">Sep '18</tspan>
        </text>
        <text x="276.33333333333337" y="286" style="font-family:Arial;font-size:10px;color:#000000;cursor:default;line-height:14px;fill:#000000;" text-anchor="middle" opacity="1">
            <tspan x="276.33333333333337">Nov '18</tspan>
        </text>
        <text x="366.9761904761905" y="286" style="font-family:Arial;font-size:10px;color:#000000;cursor:default;line-height:14px;fill:#000000;" text-anchor="middle" opacity="1">
            <tspan x="366.9761904761905">Jan '19</tspan>
        </text>
        <text x="462.09523809523813" y="286" style="font-family:Arial;font-size:10px;color:#000000;cursor:default;line-height:14px;fill:#000000;" text-anchor="middle" opacity="1">
            <tspan x="462.09523809523813">Mar '19</tspan>
        </text>
        <text x="553.8571428571429" y="286" style="font-family:Arial;font-size:10px;color:#000000;cursor:default;line-height:14px;fill:#000000;" text-anchor="middle" opacity="1">
            <tspan x="553.8571428571429">May '19</tspan>
        </text>
    </g>
    <!-- vertical axis -->
    <g class="chart-axis-labels" zIndex="7">
        <text x="579" y="270" style="font-family:Arial;font-size:10px;width:187px;color:#000000;cursor:default;line-height:14px;fill:#000000;" text-anchor="start" opacity="1">
            <tspan x="579">3,450.40</tspan>
        </text>
        <text x="579" y="226.33325006435865" style="font-family:Arial;font-size:10px;width:187px;color:#000000;cursor:default;line-height:14px;fill:#000000;" text-anchor="start" opacity="1">
            <tspan x="579">3,625.20</tspan>
        </text>
        <text x="579" y="182.66674993564135" style="font-family:Arial;font-size:10px;width:187px;color:#000000;cursor:default;line-height:14px;fill:#000000;" text-anchor="start" opacity="1">
            <tspan x="579">3,800.01</tspan>
        </text>
        <text x="579" y="139.0000000000001" style="font-family:Arial;font-size:10px;width:187px;color:#000000;cursor:default;line-height:14px;fill:#000000;" text-anchor="start" opacity="1">
            <tspan x="579">3,974.81</tspan>
        </text>
        <text x="579" y="95.33349987128273" style="font-family:Arial;font-size:10px;width:187px;color:#000000;cursor:default;line-height:14px;fill:#000000;" text-anchor="start" opacity="1">
            <tspan x="579">4,149.61</tspan>
        </text>
        <text x="579" y="51.66674993564149" style="font-family:Arial;font-size:10px;width:187px;color:#000000;cursor:default;line-height:14px;fill:#000000;" text-anchor="start" opacity="1">
            <tspan x="579">4,324.41</tspan>
        </text>
        <text x="0" y="-9999" style="font-family:Arial;font-size:10px;width:187px;color:#000000;cursor:default;line-height:14px;fill:#000000;" text-anchor="start">
            <tspan x="0">4,499.21</tspan>
        </text>
    </g>
</svg>